<?xml version="1.0" standalone="no"?>
<!DOCTYPE svg PUBLIC "-//W3C//DTD SVG 20010904//EN"
 "http://www.w3.org/TR/2001/REC-SVG-20010904/DTD/svg10.dtd">
<svg version="1.0" xmlns="http://www.w3.org/2000/svg"
 width="223.000000pt" height="257.000000pt" viewBox="0 0 223.000000 257.000000"
 preserveAspectRatio="xMidYMid meet">
<metadata>
Created by potrace 1.10, written by Peter Selinger 2001-2011
</metadata>
<g transform="translate(0.000000,257.000000) scale(0.100000,-0.100000)"
fill="#000000" stroke="none">
<path d="M1458 2208 c12 -6 25 -22 28 -35 7 -28 12 -28 44 -2 l25 21 -27 -16
c-24 -14 -28 -14 -28 -2 0 16 -37 46 -55 45 -5 0 0 -5 13 -11z"/>
<path d="M1000 2163 c32 -6 50 -22 64 -55 l12 -27 29 25 c25 20 25 22 5 10
-25 -15 -27 -14 -53 19 -20 26 -35 35 -55 34 -27 -2 -27 -2 -2 -6z"/>
<path d="M915 2130 c-21 -16 -46 -39 -56 -51 l-18 -21 -31 26 c-18 14 -37 26
-43 26 -7 0 3 -9 21 -20 17 -11 32 -24 32 -30 0 -21 27 -9 61 26 18 20 48 45
64 55 17 10 25 19 19 19 -6 0 -28 -13 -49 -30z"/>
<path d="M1385 2125 c-22 -13 -35 -24 -30 -24 6 0 19 6 29 14 26 19 34 19 39
-2 3 -11 5 -7 6 10 0 15 0 27 -1 27 -2 0 -21 -11 -43 -25z"/>
<path d="M1547 2118 c-16 -11 -45 -27 -65 -34 -24 -8 -30 -13 -16 -14 11 0 41
13 66 29 32 20 48 26 52 18 2 -7 5 -4 5 6 1 22 -8 21 -42 -5z"/>
<path d="M1166 2085 c-25 -20 -46 -39 -46 -42 0 -3 15 6 33 21 57 47 75 53 93
28 8 -12 25 -21 37 -21 l22 2 -23 4 c-12 2 -27 13 -32 24 -15 27 -31 24 -84
-16z"/>
<path d="M908 2039 l-73 -72 73 67 c80 73 102 81 102 38 0 -34 31 -66 57 -59
15 4 15 5 -3 6 -28 1 -41 18 -46 56 -5 50 -31 42 -110 -36z"/>
<path d="M650 2069 c-75 -38 -165 -124 -208 -199 -18 -30 -32 -59 -32 -65 0
-5 13 13 29 42 63 114 157 197 263 234 29 10 44 18 32 19 -11 0 -49 -14 -84
-31z"/>
<path d="M655 2001 c-53 -30 -134 -111 -154 -152 l-12 -24 18 25 c42 60 107
119 160 148 32 17 54 32 48 32 -5 0 -32 -13 -60 -29z"/>
<path d="M1543 1927 c3 -31 0 -36 -12 -31 -34 13 -80 16 -97 5 -16 -9 -13 -10
13 -5 17 3 48 1 68 -6 20 -7 38 -10 40 -8 1 1 -1 21 -6 43 l-8 40 2 -38z"/>
<path d="M1600 1937 c0 -10 13 -51 29 -90 37 -93 76 -229 106 -364 13 -59 24
-100 24 -89 2 30 -47 236 -78 332 -45 138 -81 231 -81 211z"/>
<path d="M1163 1923 c26 -2 67 -2 90 0 23 2 2 3 -48 3 -49 0 -68 -1 -42 -3z"/>
<path d="M930 1911 c30 -3 60 -10 67 -14 6 -4 35 0 65 8 41 12 44 14 13 9 -22
-3 -49 -6 -60 -5 -11 1 -47 3 -80 5 l-60 4 55 -7z"/>
<path d="M1210 1861 c47 -4 95 -12 107 -19 32 -18 41 -15 13 5 -18 13 -48 18
-115 19 l-90 2 85 -7z"/>
<path d="M830 1829 c-39 -24 -110 -89 -110 -101 0 -5 14 8 32 27 17 20 54 50
82 66 28 16 47 29 41 29 -5 0 -26 -9 -45 -21z"/>
<path d="M1189 1841 c7 -5 21 -37 31 -72 21 -71 26 -64 9 9 -13 51 -25 72 -43
72 -6 0 -5 -4 3 -9z"/>
<path d="M1437 1839 c-17 -10 -16 -12 3 -39 11 -15 29 -48 39 -72 11 -23 20
-36 20 -28 0 8 -13 39 -29 69 -17 30 -30 56 -30 58 0 2 10 8 23 13 12 5 15 9
7 9 -8 0 -23 -4 -33 -10z"/>
<path d="M688 1783 c-18 -21 -48 -78 -48 -90 1 -4 10 10 22 32 11 22 27 48 36
58 8 9 13 17 10 17 -3 0 -12 -8 -20 -17z"/>
<path d="M1008 1705 c2 -29 -1 -64 -8 -77 -11 -22 -10 -22 4 -4 17 20 23 121
9 129 -5 3 -6 -19 -5 -48z"/>
<path d="M1073 1705 c0 -33 2 -45 4 -27 2 18 2 45 0 60 -2 15 -4 0 -4 -33z"/>
<path d="M1292 1679 c-2 -38 3 -51 24 -73 15 -14 34 -26 43 -25 12 0 11 2 -4
8 -34 15 -53 44 -58 91 l-4 45 -1 -46z"/>
<path d="M1352 1683 c-2 -35 19 -54 60 -52 25 1 19 4 -24 13 -21 5 -28 13 -31
39 l-4 32 -1 -32z"/>
<path d="M1243 1683 c49 -174 61 -212 65 -209 5 6 -59 226 -65 226 -3 0 -3 -8
0 -17z"/>
<path d="M914 1640 c1 -33 3 -35 36 -36 34 -2 34 -1 3 3 -27 4 -32 9 -36 36
-4 31 -4 31 -3 -3z"/>
<path d="M1499 1645 c-3 -30 -10 -43 -29 -52 -16 -8 -19 -13 -9 -13 28 0 51
35 47 72 l-4 33 -5 -40z"/>
<path d="M424 1500 c0 -74 1 -105 3 -67 2 37 2 97 0 135 -2 37 -3 6 -3 -68z"/>
<path d="M685 1470 c2 -36 16 -103 30 -150 26 -80 118 -290 128 -290 3 0 19
24 35 54 17 29 43 63 58 75 15 11 22 21 17 21 -15 0 -59 -51 -86 -98 l-24 -43
-42 93 c-57 124 -99 250 -110 334 l-10 69 4 -65z"/>
<path d="M625 1457 c6 -89 60 -250 132 -391 35 -69 59 -130 64 -161 l6 -50 2
44 c1 36 -10 66 -59 162 -69 135 -125 295 -139 395 l-10 69 4 -68z"/>
<path d="M361 1414 c0 -27 4 -69 9 -94 6 -32 7 -18 3 45 -6 98 -13 128 -12 49z"/>
<path d="M1321 1410 c0 -8 4 -35 10 -60 6 -25 15 -85 19 -135 l8 -90 -3 95
c-3 80 -31 237 -34 190z"/>
<path d="M1292 1203 c-2 -58 -4 -63 -24 -63 -13 0 -43 14 -67 30 -33 23 -54
30 -85 28 -23 -1 -57 2 -76 6 -28 5 -26 3 9 -8 24 -8 57 -12 72 -9 21 4 40 -3
75 -26 50 -33 91 -40 100 -17 3 7 3 38 1 67 l-3 54 -2 -62z"/>
<path d="M450 1205 c0 -26 44 -193 72 -270 76 -212 201 -376 345 -453 85 -45
162 -62 268 -60 l90 1 -115 7 c-224 14 -362 104 -489 317 -58 97 -98 199 -136
348 -19 72 -34 121 -35 110z"/>
<path d="M391 1195 c-1 -37 57 -242 94 -332 87 -208 215 -365 359 -440 40 -21
136 -53 155 -53 9 1 -18 12 -61 26 -243 78 -422 321 -518 704 -16 63 -29 106
-29 95z"/>
<path d="M1160 1116 c20 -26 72 -46 112 -45 28 1 25 3 -14 9 -26 5 -62 19 -80
31 -26 18 -30 19 -18 5z"/>
<path d="M1794 1015 c0 -60 1 -84 3 -52 2 32 2 81 0 110 -2 29 -3 3 -3 -58z"/>
<path d="M1734 1015 c0 -49 1 -71 3 -48 2 23 2 64 0 90 -2 26 -3 8 -3 -42z"/>
<path d="M1013 963 c48 -2 126 -2 175 0 48 1 8 3 -88 3 -96 0 -136 -2 -87 -3z"/>
<path d="M1480 953 c72 -5 86 -12 100 -57 l10 -31 -5 35 c-7 49 -27 60 -104
58 l-66 -2 65 -3z"/>
<path d="M880 899 c0 -41 33 -92 79 -120 25 -16 52 -29 60 -29 8 0 -9 12 -37
26 -38 19 -58 37 -72 65 -23 44 -25 65 -7 72 7 3 5 6 -5 6 -12 1 -18 -6 -18
-20z"/>
<path d="M978 903 c34 -2 90 -2 125 0 34 2 6 3 -63 3 -69 0 -97 -1 -62 -3z"/>
<path d="M1325 893 c96 -7 205 -7 205 0 0 4 -55 6 -122 5 -68 -1 -105 -3 -83
-5z"/>
<path d="M830 847 c-1 -26 82 -127 104 -127 6 0 -6 14 -27 31 -21 17 -46 47
-57 67 -10 21 -19 33 -20 29z"/>
<path d="M1550 810 c-16 -29 -73 -69 -137 -96 -32 -13 -51 -24 -43 -24 24 0
112 44 148 75 30 25 59 65 48 65 -3 0 -10 -9 -16 -20z"/>
<path d="M1138 733 c29 -2 74 -2 100 0 26 2 2 3 -53 3 -55 0 -76 -1 -47 -3z"/>
<path d="M1015 689 c13 -9 65 -14 155 -15 l135 -2 -135 8 c-74 4 -144 10 -155
14 -20 8 -20 8 0 -5z"/>
<path d="M1651 546 c-23 -24 -65 -54 -92 -66 -27 -13 -47 -25 -45 -27 5 -5 95
42 116 60 24 20 74 77 69 77 -3 0 -24 -20 -48 -44z"/>
<path d="M1425 424 c-33 -14 -46 -22 -30 -18 31 6 118 43 100 42 -5 0 -37 -11
-70 -24z"/>
<path d="M1190 370 l-55 -7 50 0 c28 -1 61 3 75 7 31 10 10 10 -70 0z"/>
</g>
</svg>
